<svg width="22" height="22" viewBox="0 0 22 22" fill="none" xmlns="http://www.w3.org/2000/svg">
<circle cx="11" cy="11" r="10" stroke="#08808a" stroke-width="0.75"/>
<path d="M14.212 10.9986C14.0148 10.9986 13.8549 11.1585 13.8549 11.3557V14.9261C13.8549 15.1233 13.6951 15.2831 13.4979 15.2831H7.07113C6.87393 15.2831 6.71408 15.1233 6.71408 14.9261V7.78524C6.71408 7.58804 6.87393 7.42819 7.07113 7.42819H11.3556C11.5528 7.42819 11.7127 7.26834 11.7127 7.07114C11.7127 6.87394 11.5528 6.71411 11.3556 6.71411H7.07113C6.47956 6.71411 6 7.19367 6 7.78524V14.9261C6 15.5177 6.47956 15.9972 7.07113 15.9972H13.4979C14.0895 15.9972 14.569 15.5177 14.569 14.9261V11.3557C14.569 11.1585 14.4092 10.9986 14.212 10.9986Z" fill="#08808a"/>
<path fill-rule="evenodd" clip-rule="evenodd" d="M14.6306 6.00013C14.9932 6.00009 15.3409 6.1441 15.5973 6.4005C16.131 6.93429 16.1309 7.79969 15.5971 8.33341L10.8941 13.0364C10.8549 13.0756 10.8071 13.1052 10.7545 13.1228L8.61227 13.8369C8.57587 13.8489 8.53777 13.855 8.49945 13.8551C8.46121 13.855 8.42319 13.8489 8.3869 13.8368C8.1998 13.7745 8.09865 13.5723 8.16097 13.3852L8.87505 11.2429C8.89265 11.1904 8.92208 11.1426 8.9611 11.1033L13.6641 6.40073C13.9197 6.14335 14.2678 5.99908 14.6306 6.00013ZM10.4507 12.4705L15.0923 7.82889C15.2149 7.70663 15.2837 7.54044 15.2833 7.36724C15.2827 7.19496 15.2142 7.02988 15.0925 6.90793C14.8377 6.65266 14.4242 6.65224 14.1689 6.90701L9.52558 11.5486L9.06392 12.9335L10.4507 12.4705Z" fill="#08808a"/>
</svg>
