<svg width="22" height="22" viewBox="0 0 22 22" fill="none" xmlns="http://www.w3.org/2000/svg">
<circle cx="11" cy="11" r="10" stroke="#08808a" stroke-width="0.75"/>
<path fill-rule="evenodd" clip-rule="evenodd" d="M15.1633 15.2563C16.2877 14.1318 16.907 12.6367 16.907 11.0465C16.907 10.2431 16.7498 9.45916 16.4398 8.71649C16.14 7.99844 15.7118 7.35165 15.167 6.79407C14.0366 5.63714 12.5402 5 10.9535 5C10.1453 5 9.35793 5.16884 8.61312 5.50179C7.90419 5.81872 7.26593 6.26902 6.71607 6.84023C6.53793 7.02528 6.54351 7.31972 6.72858 7.49786C6.91365 7.67602 7.20807 7.67042 7.38623 7.48535C8.35163 6.48251 9.61851 5.93023 10.9535 5.93023C13.7233 5.93023 15.9767 8.22537 15.9767 11.0465C15.9767 13.8163 13.7233 16.0698 10.9535 16.0698C8.18365 16.0698 5.93023 13.7746 5.93023 10.9535C5.93023 10.6966 5.722 10.4884 5.46512 10.4884C5.20823 10.4884 5 10.6966 5 10.9535C5 11.7569 5.15719 12.5408 5.46719 13.2835C5.76693 14.0016 6.19514 14.6483 6.73995 15.2059C7.87042 16.3629 9.36679 17 10.9535 17C12.5437 17 14.0388 16.3807 15.1633 15.2563ZM7.72093 9.25581H6.39535C5.62595 9.25581 5 8.62986 5 7.86047V6.53488C5 6.278 5.20823 6.06977 5.46512 6.06977C5.722 6.06977 5.93023 6.278 5.93023 6.53488V7.86047C5.93023 8.11693 6.13888 8.32558 6.39535 8.32558H7.72093C7.97781 8.32558 8.18605 8.53381 8.18605 8.7907C8.18605 9.04758 7.97781 9.25581 7.72093 9.25581ZM9.84205 12.9858C9.47495 12.7771 9.25581 12.4013 9.25581 11.9806V9.87988C9.25581 9.45919 9.47495 9.0834 9.84205 8.87465C10.212 8.66426 10.6512 8.66856 11.0169 8.88609L12.7823 9.93644C13.1371 10.1475 13.3488 10.519 13.3488 10.9302C13.3488 11.3415 13.1371 11.713 12.7823 11.924L11.0169 12.9743C10.8307 13.0851 10.6254 13.1406 10.4199 13.1406C10.2219 13.1406 10.0236 13.0891 9.84205 12.9858ZM10.3019 12.1772C10.2586 12.1526 10.186 12.0943 10.186 11.9806V9.87988C10.186 9.76614 10.2586 9.70791 10.3019 9.6833C10.3236 9.67095 10.3667 9.65123 10.421 9.65123C10.4572 9.65123 10.4983 9.66 10.5412 9.68558L12.3067 10.7359C12.4041 10.7938 12.4186 10.8825 12.4186 10.9302C12.4186 10.9779 12.4041 11.0666 12.3067 11.1245L10.5412 12.1749C10.4339 12.2388 10.338 12.1978 10.3019 12.1772Z" fill="#08808a"/>
</svg>
