<svg width="22" height="22" viewBox="0 0 22 22" fill="none" xmlns="http://www.w3.org/2000/svg">
<circle cx="11" cy="11" r="10" stroke="white" stroke-width="0.75"/>
<path d="M15.0049 9.84608L9.09867 6.20536C8.67137 5.94229 8.15475 5.93135 7.71668 6.1761C7.27861 6.42081 7.01709 6.86653 7.01709 7.36831V14.6166C7.01709 15.3753 7.62842 15.9959 8.37979 16C8.38184 16 8.38389 16 8.3859 16C8.6207 16 8.86539 15.9264 9.09393 15.7869C9.27777 15.6748 9.33588 15.4348 9.22371 15.251C9.11154 15.0671 8.87154 15.009 8.68775 15.1212C8.58086 15.1864 8.47646 15.2201 8.38398 15.2201C8.10049 15.2185 7.79695 14.9757 7.79695 14.6166V7.36833C7.79695 7.15307 7.90914 6.96192 8.09703 6.85694C8.28494 6.75196 8.50652 6.75665 8.68959 6.86936L14.5959 10.5101C14.7734 10.6194 14.875 10.8016 14.8745 11.0101C14.8741 11.2186 14.7718 11.4004 14.5933 11.5093L10.323 14.1239C10.1394 14.2364 10.0816 14.4765 10.1941 14.6601C10.3065 14.8438 10.5466 14.9015 10.7303 14.789L15 12.1748C15.4088 11.9254 15.6535 11.4906 15.6544 11.0117C15.6554 10.5328 15.4125 10.097 15.0049 9.84608Z" fill="white"/>
</svg>
